# AST/ASF file generated using VICON BodyLanguage
# -----------------------------------------------
:version 1.10
:name VICON
:units
  mass 1.0
  length 0.45
  angle deg
:documentation
   .ast/.asf automatically generated from VICON data using
   VICON BodyBuilder and BodyLanguage model FoxedUp or BRILLIANT.MOD
:root
   order TX TY TZ RX RY RZ
   axis XYZ
   position 0 0 0  
   orientation 0 0 0 
:bonedata
  begin
     id 1 
     name lhipjoint
     direction 0.716248 -0.617586 0.324924 
     length 2.63557 
     axis 0 0 0  XYZ
  end
  begin
     id 2 
     name lfemur
     direction 0.34202 -0.939693 0  
     length 7.01235  
     axis 0 0 20  XYZ
    dof rx ry rz
    limits (-160.0 20.0)
           (-70.0 70.0)
           (-60.0 70.0)
  end
  begin
     id 3 
     name ltibia
     direction 0.34202 -0.939693 0   
     length 8.14348   
     axis 0 0 20   XYZ
    dof rx
    limits (-10.0 170.0)
  end
  begin
     id 4 
     name lfoot
     direction 0.0982064 -0.26982 0.95789   
     length 1.99077   
     axis -90 7.62852e-016 20   XYZ
    dof rx rz
    limits (-45.0 90.0)
           (-70.0 20.0)
  end
  begin
     id 5 
     name ltoes
     direction 1.53511e-011 -4.21891e-011 1   
     length 0.99735   
     axis -90 7.62852e-016 20   XYZ
    dof rx
    limits (-90.0 20.0)
  end
  begin
     id 6 
     name rhipjoint
     direction -0.687828 -0.642391 0.337975   
     length 2.5338  
     axis 0 0 0  XYZ 
  end
  begin
     id 7 
     name rfemur
     direction -0.34202 -0.939693 0   
     length 6.90199   
     axis 0 0 -20   XYZ
    dof rx ry rz
    limits (-160.0 20.0)
           (-70.0 70.0)
           (-70.0 60.0)
  end
  begin
     id 8 
     name rtibia
     direction -0.34202 -0.939693 0   
     length 8.07725   
     axis 0 0 -20   XYZ
    dof rx
    limits (-10.0 170.0)
 end
 begin
     id 9 
     name rfoot
     direction -0.0912384 -0.250675 0.963762   
     length 2.11621  
     axis -90 -7.62852e-016 -20   XYZ
    dof rx rz
    limits (-45.0 90.0)
           (-20.0 70.0)
  end
  begin
     id 10 
     name rtoes
     direction -1.5359e-011 -4.21894e-011 1   
     length 1.06031   
     axis -90 -7.62852e-016 -20   XYZ
    dof rx
    limits (-90.0 20.0)
  end
  begin
     id 11 
     name lowerback
     direction -0.0403572 0.987953 -0.149396   
     length 2.05637   
     axis 0 0 0   XYZ
    dof rx ry rz
    limits (-20.0 45.0)
           (-30.0 30.0)
           (-30.0 30.0)
  end
  begin
     id 12 
     name upperback
     direction -0.00512151 0.997598 0.0690792   
     length 2.01086   
     axis 0 0 0   XYZ
    dof rx ry rz
    limits (-20.0 45.0)
           (-30.0 30.0)
           (-30.0 30.0)
  end
  begin
     id 13 
     name thorax
     direction 0.0136133 0.989392 0.14463   
     length 2.09035   
     axis 0 0 0   XYZ
    dof rx ry rz
    limits (-20.0 45.0)
           (-30.0 30.0)
           (-30.0 30.0)
  end
  begin
     id 14 
     name lowerneck
     direction 0.0250714 0.992811 0.11704   
     length 1.70806   
     axis 0 0 0   XYZ
    dof rx ry rz
    limits (-20.0 45.0)
           (-30.0 30.0)
           (-30.0 30.0)
  end
  begin
     id 15 
     name upperneck
     direction -0.0519205 0.998394 -0.0226787   
     length 1.6689   
     axis 0 0 0   XYZ
    dof rx ry rz
    limits (-20.0 45.0)
           (-30.0 30.0)
           (-30.0 30.0)
  end
  begin
     id 16
     name head
     direction -0.0201693 0.999547 -0.0223192  
     length 1.83412  
     axis 0 0 0   XYZ
    dof rx ry rz
    limits (-20.0 45.0)
           (-30.0 30.0)
           (-30.0 30.0)
  end
  begin
     id 17 
     name lclavicle
     direction 0.89585 0.444077 -0.0157448  
     length 3.39587  
     axis 0 0 0   XYZ
    dof ry rz
    limits (-20.0 10.0)
           (0.0 20.0)
  end
  begin
     id 18 
     name lhumerus
     direction 1 -4.48956e-011 1.99132e-028   
     length 5.79199   
     axis 180 -30 -90   XYZ
    dof rx ry rz
    limits (-60.0 90.0)
           (-90.0 90.0)
           (-90.0 90.0)
  end
  begin
     id 19
     name lradius
     direction 1 -4.48974e-011 8.72912e-028   
     length 3.49908   
     axis 180 -30 -90   XYZ
    dof rx
    limits (-10.0 170.0)
  end
  begin
     id 20
     name lwrist
     direction 1 -4.48994e-011 4.76442e-027   
     length 1.74954   
     axis -3.27502e-015 90 90   XYZ
    dof ry
    limits (-180.0 0.0)
 end
  begin
     id 21 
     name lhand
     direction 1 -4.48945e-011 9.531e-027   
     length 0.593861   
     axis -6.08098e-015 90 90   XYZ
    dof rx rz
    limits (-90.0 90.0)
           (-45.0 45.0)
  end
  begin
     id 22 
     name lfingers
     direction 1 -4.48945e-011 1.9062e-026   
     length 0.478786   
     axis -1.21619e-014 90 90   XYZ
    dof rx
    limits (0.0 90.0)
  end
  begin
     id 23
     name lthumb
     direction 0.707107 -6.34904e-011 0.707107   
     length 0.687444   
     axis -90 45 -9.86923e-015   XYZ
    dof rx rz
    limits (-45.0 45.0)
           (-45.0 45.0)
  end
  begin
     id 24 
     name rclavicle
     direction -0.940466 0.338394 0.0318182   
     length 3.51226  
     axis 0 0 0   XYZ 
    dof ry rz
    limits (-10.0 20.0)
           (-20.0 0.0)
  end
  begin
     id 25 
     name rhumerus
     direction -1 -4.48976e-011 2.0905e-027  
     length 5.73799   
     axis 180 30 90   XYZ
    dof rx ry rz
    limits (-90.0 60.0)
           (-90.0 90.0)
           (-90.0 90.0)
  end
  begin
     id 26 
     name rradius
     direction -1 -4.48968e-011 -9.39692e-029   
     length 3.57916   
     axis 180 30 90   XYZ
    dof rx
    limits (-10.0 170.0)
  end
  begin
     id 27 
     name rwrist
     direction -1 -4.48959e-011 4.7652e-027   
     length 1.78958   
     axis -3.27502e-015 -90 -90   XYZ
    dof ry
    limits (-180.0 0.0)
  end
  begin
     id 28
     name rhand
     direction -1 -4.49042e-011 9.5267e-027   
     length 0.615577   
     axis -6.08098e-015 -90 -90   XYZ
    dof rx rz
    limits (-90.0 90.0)
           (-45.0 45.0)
  end
  begin
     id 29
     name rfingers
     direction -1 -4.48935e-011 1.90629e-026   
     length 0.496294   
     axis -1.21619e-014 -90 -90   XYZ
    dof rx
    limits (0.0 90.0)
  end
  begin
     id 30
     name rthumb
     direction -0.707107 -6.34977e-011 0.707107   
     length 0.712582   
     axis -90 -45 9.86923e-015   XYZ
    dof rx rz
    limits (-45.0 45.0)
           (-45.0 45.0)
  end
:hierarchy
  begin
    root lhipjoint rhipjoint lowerback
    lhipjoint lfemur
    lfemur ltibia
    ltibia lfoot
    lfoot ltoes
    rhipjoint rfemur
    rfemur rtibia
    rtibia rfoot
    rfoot rtoes
    lowerback upperback
    upperback thorax
    thorax lowerneck lclavicle rclavicle
    lowerneck upperneck
    upperneck head
    lclavicle lhumerus
    lhumerus lradius
    lradius lwrist
    lwrist lhand lthumb
    lhand lfingers
    rclavicle rhumerus
    rhumerus rradius
    rradius rwrist
    rwrist rhand rthumb
    rhand rfingers
  end

#!OML:ASF H:\Terrain\Patient Classification 1\PaulMetrics\March17Take5\PaulMetrics.ASF
:FULLY-SPECIFIED
:DEGREES
659
root 7.71847 17.4399 0.0330068 9.03945 188.802 -4.24312
lowerback 1.55016 -0.0244165 -7.78056
upperback -2.66009 -0.461528 -1.30337
thorax -3.59592 -0.0899423 3.03138
lowerneck -4.99265 6.7199 6.68211
upperneck 10.7571 9.28007 -9.91783
head 4.81909 4.17247 -3.59516
rclavicle -6.75868e-015 1.07344e-014
rhumerus -51.1023 11.5691 -91.0124
rradius 37.7449
rwrist -6.07378
rhand -13.7697 -30.6339
rfingers 7.12502
rthumb 12.3512 -60.249
lclavicle -6.75868e-015 1.07344e-014
lhumerus -40.8266 -15.3412 83.1563
lradius 51.9538
lwrist 22.2453
lhand -10.9528 -20.6126
lfingers 7.12502
lthumb 15.066 8.81916
rfemur -34.6556 -2.77434 17.1039
rtibia 64.506
rfoot -10.0814 -6.61377
rtoes -6.59136
lfemur -19.2405 -7.81969 -29.9411
ltibia 33.2112
lfoot -18.161 1.53714
ltoes 7.96877
660
root 7.71114 17.4203 -0.110473 9.17493 188.845 -4.01153
lowerback 1.45672 0.0138922 -7.51013
upperback -2.67903 -0.390074 -1.28323
thorax -3.56937 -0.0607661 2.89784
lowerneck -5.11594 6.66887 6.74134
upperneck 10.7559 9.19542 -9.78941
head 4.82893 4.14196 -3.56694
rclavicle 2.02512e-014 -3.10104e-014
rhumerus -51.1528 11.3904 -91.1899
rradius 37.6445
rwrist -6.42352
rhand -13.9089 -30.33
rfingers 7.12502
rthumb 12.2169 -59.9532
lclavicle 2.02512e-014 -3.10104e-014
lhumerus -40.6463 -15.9052 83.0201
lradius 52.9922
lwrist 22.9683
lhand -11.3692 -20.377
lfingers 7.12502
lthumb 14.6648 9.08437
rfemur -35.5504 -2.28004 17.3547
rtibia 63.0654
rfoot -10.7012 -6.85354
rtoes -4.51561
lfemur -18.8257 -7.46981 -29.6867
ltibia 33.0857
lfoot -18.3657 1.16368
ltoes 8.07276
661
root 7.69834 17.4119 -0.255685 9.24515 188.998 -3.96324
lowerback 1.52773 0.118825 -7.46186
upperback -2.61476 -0.24796 -1.29272
thorax -3.55702 0.00823413 2.8549
lowerneck -5.53859 6.46438 7.01435
upperneck 10.7693 8.90153 -9.87752
head 4.89548 3.99945 -3.6475
rclavicle -5.54112e-015 -4.77083e-015
rhumerus -51.1017 10.8384 -91.0703
rradius 37.6484
rwrist -6.50901
rhand -13.5506 -30.1285
rfingers 7.12502
rthumb 12.5624 -59.7309
lclavicle -5.54112e-015 -4.77083e-015
lhumerus -40.2403 -16.6886 82.9955
lradius 54.18
lwrist 24.2652
lhand -11.3374 -19.2837
lfingers 7.12502
lthumb 14.6955 10.1755
rfemur -36.3312 -2.02334 17.4012
rtibia 61.525
rfoot -11.1446 -7.16448
rtoes -3.04724
lfemur -18.247 -7.19873 -29.6477
ltibia 32.9105
lfoot -18.9229 0.780391
ltoes 7.45334
662
root 7.68002 17.4154 -0.406136 9.37802 189.269 -4.21542
lowerback 1.51604 0.0072161 -7.82301
upperback -2.61623 -0.404033 -1.19593
thorax -3.53603 -0.0586371 3.16372
lowerneck -5.63258 6.41851 7.22987
upperneck 10.8292 8.84861 -10.1646
head 4.94773 3.96009 -3.77335
rclavicle -3.90115e-015 8.34896e-015
rhumerus -51.2334 10.9251 -90.9359
rradius 37.8324
rwrist -6.5009
rhand -13.1363 -29.9951
rfingers 7.12502
rthumb 12.9618 -59.5725
lclavicle -3.90115e-015 8.34896e-015
lhumerus -40.0981 -16.7891 82.9697
lradius 55.6364
lwrist 25.4013
lhand -10.8569 -17.5287
lfingers 7.12502
lthumb 15.1583 11.8962
rfemur -37.0187 -2.08189 17.1154
rtibia 59.8466
rfoot -11.2911 -7.46044
rtoes -3.2024
lfemur -17.6233 -7.24351 -29.9025
ltibia 32.6787
lfoot -19.6016 0.439058
ltoes 6.87602
663
root 7.66813 17.4058 -0.552979 9.54676 189.432 -4.4388
lowerback 1.39207 -0.191378 -8.05344
upperback -2.67345 -0.667654 -1.11924
thorax -3.49495 -0.183641 3.38258
lowerneck -5.24889 6.46594 7.20403
upperneck 10.5817 8.92621 -10.3099
head 4.81938 4.00259 -3.82109
rclavicle -1.25234e-014 -7.95139e-015
rhumerus -51.5002 11.4121 -91.0598
rradius 37.912
rwrist -6.34397
rhand -13.3115 -29.8138
rfingers 7.12502
rthumb 12.7929 -59.4019
lclavicle -1.25234e-014 -7.95139e-015
lhumerus -40.2273 -16.6821 82.8499
lradius 56.3103
lwrist 24.7403
lhand -11.3996 -19.2737
lfingers 7.12502
lthumb 14.6355 10.1898
rfemur -37.6069 -1.96042 16.8433
rtibia 57.9756
rfoot -11.8435 -7.68537
rtoes -3.34619
lfemur -17.0251 -7.17307 -30.1283
ltibia 32.3291
lfoot -19.6779 0.324092
ltoes 7.34096
664
root 7.6607 17.3828 -0.696645 9.60555 189.468 -4.68183
lowerback 1.48937 -0.27779 -8.33627
upperback -2.70765 -0.803325 -1.06263
thorax -3.56853 -0.239305 3.60612
lowerneck -4.99459 6.46774 6.97781
upperneck 10.347 8.93417 -10.229
head 4.69152 4.01459 -3.76745
rclavicle 4.27014e-014 -3.00165e-014
rhumerus -51.886 11.7702 -91.1315
rradius 38.2524
rwrist -6.30183
rhand -13.7196 -29.9633
rfingers 7.12502
rthumb 12.3995 -59.5756
lclavicle 4.27014e-014 -3.00165e-014
lhumerus -40.243 -16.6922 82.7519
lradius 57.3688
lwrist 24.3795
lhand -11.8677 -18.6374
lfingers 7.12502
lthumb 14.1844 10.8584
rfemur -38.0216 -1.61076 16.5386
rtibia 55.9994
rfoot -12.9375 -8.06723
rtoes -3.74689
lfemur -16.2104 -6.80978 -30.4047
ltibia 31.7727
lfoot -19.903 0.353323
ltoes 6.66066
665
root 7.65029 17.3756 -0.844142 9.60927 189.511 -4.75141
lowerback 1.71314 -0.232832 -8.45512
upperback -2.73296 -0.768672 -1.01847
thorax -3.72564 -0.210204 3.71947
lowerneck -5.35312 6.42495 6.98114
upperneck 10.6032 8.87398 -10.1692
head 4.82254 3.97296 -3.74201
rclavicle 1.88348e-014 -4.39314e-014
rhumerus -52.1446 11.6366 -91.0571
rradius 38.6811
rwrist -6.43409
rhand -13.6191 -30.131
rfingers 7.12502
rthumb 12.4963 -59.7374
lclavicle 1.88348e-014 -4.39314e-014
lhumerus -40.1438 -17.1175 82.7736
lradius 58.0703
lwrist 24.7778
lhand -12.5246 -19.8012
lfingers 7.12502
lthumb 13.5514 9.73778
rfemur -38.368 -1.18642 16.4071
rtibia 53.9735
rfoot -13.8358 -8.8698
rtoes -3.14364
lfemur -15.2475 -6.53083 -30.488
ltibia 31.0452
lfoot -20.6846 0.451963
ltoes 3.66113
666
root 7.64038 17.3957 -0.997777 9.74795 189.701 -4.93682
lowerback 1.72738 -0.252711 -8.63794
upperback -2.73021 -0.806435 -1.03917
thorax -3.7261 -0.225309 3.80185
lowerneck -5.67388 6.43355 7.12584
upperneck 10.8149 8.87122 -10.0952
head 4.94466 3.97087 -3.73178
rclavicle 5.41937e-014 2.38542e-015
rhumerus -52.0743 11.2626 -90.949
rradius 38.622
rwrist -6.28215
rhand -13.3124 -30.0468
rfingers 7.12502
rthumb 12.7921 -59.6349
lclavicle 5.41937e-014 2.38542e-015
lhumerus -39.9743 -17.509 82.6902
lradius 58.8778
lwrist 25.1285
lhand -13.3448 -20.8427
lfingers 7.12502
lthumb 12.7608 8.74732
rfemur -38.7862 -0.887113 16.1248
rtibia 51.8832
rfoot -14.2655 -9.95211
rtoes -2.59294
lfemur -14.2871 -6.41442 -30.6416
ltibia 30.1471
lfoot -20.9891 0.357694
ltoes 2.0501
667
root 7.63286 17.4218 -1.15544 9.96882 189.86 -5.13042
lowerback 1.53272 -0.355004 -8.9377
upperback -2.72568 -0.931824 -0.978734
thorax -3.59245 -0.284879 4.03531
lowerneck -5.45709 6.49118 7.0411
upperneck 10.5492 8.93932 -9.93419
head 4.82148 4.0263 -3.66968
rclavicle 3.47128e-014 1.17283e-014
rhumerus -51.9892 11.2466 -90.9145
rradius 38.465
rwrist -6.14003
rhand -13.367 -29.9482
rfingers 7.12502
rthumb 12.7394 -59.5396
lclavicle 3.47128e-014 1.17283e-014
lhumerus -39.8042 -17.6228 82.592
lradius 59.6098
lwrist 25.4422
lhand -13.8093 -21.0412
lfingers 7.12502
lthumb 12.3129 8.57627
rfemur -39.2306 -0.582736 15.8439
rtibia 49.6561
rfoot -14.2212 -11.2137
rtoes -3.76123
lfemur -13.35 -6.13731 -30.7815
ltibia 29.1231
lfoot -21.0086 0.0476957
ltoes 1.66642
